<svg xmlns="http://www.w3.org/2000/svg" xmlns:xlink="http://www.w3.org/1999/xlink" width="60" zoomAndPan="magnify" viewBox="0 0 45 44.999999" height="60" preserveAspectRatio="xMidYMid meet" version="1.0"><defs><clipPath id="912a95ef4c"><path d="M 4.5 16.167969 L 40.5 16.167969 L 40.5 43 L 4.5 43 Z M 4.5 16.167969 " clip-rule="nonzero"/></clipPath><clipPath id="ca6b5542dc"><path d="M 8 2.191406 L 37.96875 2.191406 L 37.96875 11 L 8 11 Z M 8 2.191406 " clip-rule="nonzero"/></clipPath><clipPath id="a1192e1b48"><path d="M 16 6 L 30 6 L 30 14.941406 L 16 14.941406 Z M 16 6 " clip-rule="nonzero"/></clipPath><clipPath id="9fd73af941"><path d="M 7.21875 8 L 10 8 L 10 14.941406 L 7.21875 14.941406 Z M 7.21875 8 " clip-rule="nonzero"/></clipPath></defs><g clip-path="url(#912a95ef4c)"><path fill="#ffffff" d="M 16.816406 19.726562 C 16.808594 19.511719 16.789062 18.886719 16.773438 18.671875 C 16.785156 18.675781 16.800781 18.679688 16.816406 18.6875 C 16.816406 18.769531 16.816406 19.152344 16.816406 19.726562 Z M 15.578125 18.109375 C 15.8125 18.277344 16.257812 18.464844 16.773438 18.671875 C 16.566406 18.589844 16.117188 18.363281 15.578125 18.109375 Z M 30.59375 34.824219 C 29.144531 33.175781 23.773438 26.355469 23.378906 25.859375 C 24.925781 24.410156 26.542969 22.894531 27.664062 21.773438 C 29.179688 20.257812 32.933594 16.339844 35.078125 16.339844 L 35.078125 16.171875 L 28.058594 16.171875 L 28.058594 16.339844 C 30.398438 16.339844 30.230469 18.972656 27.828125 21.378906 C 25.617188 23.589844 21.597656 27.34375 19.6875 29.125 L 19.6875 19.960938 C 19.707031 18.636719 19.765625 17.667969 20.128906 17.070312 L 20.121094 16.503906 L 15.605469 16.503906 C 14.570312 16.28125 13.617188 16.171875 12.738281 16.171875 C 10.980469 16.171875 9.585938 16.726562 8.550781 17.835938 C 7.519531 18.945312 7.003906 20.304688 7.003906 21.90625 C 7.003906 23.511719 7.652344 24.816406 8.949219 25.828125 L 14.878906 30.507812 C 15.71875 31.164062 16.367188 31.878906 16.820312 32.640625 C 16.910156 32.796875 16.996094 32.953125 17.070312 33.109375 C 17.519531 34.054688 17.746094 34.933594 17.746094 35.746094 C 17.746094 35.898438 17.734375 36.054688 17.714844 36.207031 C 17.59375 37.410156 17.234375 38.417969 16.632812 39.238281 C 16.148438 39.902344 15.511719 40.441406 14.714844 40.851562 C 13.769531 41.359375 12.65625 41.609375 11.371094 41.609375 C 10.085938 41.609375 8.9375 41.269531 7.925781 40.589844 C 6.191406 39.449219 5.324219 37.84375 5.324219 35.777344 C 5.324219 34.042969 5.894531 32.429688 7.039062 30.933594 L 6.742188 30.703125 C 5.863281 31.648438 5.269531 32.589844 4.960938 33.519531 C 4.652344 34.457031 4.5 35.191406 4.5 35.730469 C 4.5 36.269531 4.53125 36.714844 4.597656 37.066406 C 5.015625 39.394531 6.257812 41.039062 8.324219 42.007812 C 9.421875 42.535156 10.671875 42.796875 12.078125 42.796875 C 14.386719 42.796875 16.230469 42.171875 17.613281 40.917969 C 18.195312 40.398438 18.667969 39.835938 19.039062 39.238281 C 19.0625 39.199219 19.082031 39.164062 19.105469 39.125 C 19.570312 38.34375 19.773438 37.433594 19.722656 36.523438 C 19.703125 36.199219 19.695312 35.839844 19.6875 35.449219 L 19.6875 35.40625 C 19.6875 33.058594 18.699219 30.808594 16.941406 29.25 C 16.898438 29.214844 16.859375 29.179688 16.820312 29.144531 C 16.683594 29.027344 16.542969 28.910156 16.394531 28.792969 L 10.300781 23.984375 C 9.332031 23.214844 8.851562 22.253906 8.851562 21.101562 C 8.851562 19.945312 9.222656 19.003906 9.96875 18.265625 C 10.714844 17.53125 11.644531 17.160156 12.753906 17.160156 C 13.863281 17.160156 16.566406 18.589844 16.773438 18.671875 C 16.789062 18.675781 16.800781 18.679688 16.816406 18.6875 C 16.816406 18.765625 16.816406 19.152344 16.816406 19.726562 C 16.816406 19.753906 16.816406 19.773438 16.816406 19.785156 C 16.820312 19.84375 16.820312 19.902344 16.820312 19.960938 L 16.820312 28.210938 L 16.84375 28.230469 C 16.996094 28.351562 17.144531 28.472656 17.292969 28.601562 C 18.316406 29.484375 19.117188 30.457031 19.6875 31.507812 L 19.6875 29.289062 C 20.117188 28.894531 20.675781 28.398438 21.269531 27.839844 L 33.714844 42.722656 L 40.5 42.722656 L 40.5 42.558594 C 38.292969 42.558594 32.042969 36.539062 30.59375 34.824219 Z M 16.820312 19.960938 C 16.820312 19.902344 16.820312 19.84375 16.816406 19.785156 C 16.816406 19.773438 16.816406 19.753906 16.816406 19.726562 C 16.816406 22.183594 16.820312 28.097656 16.820312 28.210938 Z M 16.820312 19.960938 " fill-opacity="1" fill-rule="nonzero"/></g><g clip-path="url(#ca6b5542dc)"><path fill="#ffffff" d="M 23.21875 10.527344 L 37.941406 6.101562 L 23.21875 2.191406 L 8.5 7.953125 L 23.21875 10.527344 " fill-opacity="1" fill-rule="nonzero"/></g><g clip-path="url(#a1192e1b48)"><path fill="#ffffff" d="M 29.964844 6.359375 L 29.964844 14.941406 C 28.894531 12.347656 26.273438 11.179688 23.21875 11.179688 C 20.265625 11.179688 17.734375 12.234375 16.605469 14.703125 L 16.605469 6.359375 L 29.964844 6.359375 " fill-opacity="1" fill-rule="nonzero"/></g><path fill="#ffffff" d="M 8.136719 7.9375 C 8.136719 8.273438 8.417969 8.546875 8.761719 8.546875 C 9.105469 8.546875 9.386719 8.273438 9.386719 7.9375 C 9.386719 7.601562 9.105469 7.328125 8.761719 7.328125 C 8.417969 7.328125 8.136719 7.601562 8.136719 7.9375 " fill-opacity="1" fill-rule="nonzero"/><g clip-path="url(#9fd73af941)"><path fill="#ffffff" d="M 8.753906 8.546875 C 8.753906 8.546875 8.046875 9.085938 8.753906 10.539062 C 9.464844 11.996094 7.246094 14.304688 7.246094 14.304688 L 8.484375 13.601562 C 8.484375 13.601562 8.175781 14.355469 8.070312 14.707031 C 8.070312 14.707031 10.640625 12.847656 9.386719 10.390625 C 8.136719 7.929688 8.753906 8.546875 8.753906 8.546875 " fill-opacity="1" fill-rule="nonzero"/></g></svg>