<svg xmlns="http://www.w3.org/2000/svg" xmlns:xlink="http://www.w3.org/1999/xlink" width="60" zoomAndPan="magnify" viewBox="0 0 45 44.999999" height="60" preserveAspectRatio="xMidYMid meet" version="1.0"><defs><clipPath id="9d7ee0a381"><path d="M 4.5 16.167969 L 40.5 16.167969 L 40.5 43.167969 L 4.5 43.167969 Z M 4.5 16.167969 " clip-rule="nonzero"/></clipPath><clipPath id="f299167044"><path d="M 8 2.191406 L 37.96875 2.191406 L 37.96875 11 L 8 11 Z M 8 2.191406 " clip-rule="nonzero"/></clipPath><clipPath id="02889e5ebf"><path d="M 16 6 L 30 6 L 30 14.941406 L 16 14.941406 Z M 16 6 " clip-rule="nonzero"/></clipPath><clipPath id="c660b05fcc"><path d="M 7.21875 8 L 10 8 L 10 14.941406 L 7.21875 14.941406 Z M 7.21875 8 " clip-rule="nonzero"/></clipPath></defs><g clip-path="url(#9d7ee0a381)"><path fill="#010101" d="M 16.816406 19.773438 C 16.808594 19.558594 16.789062 18.925781 16.773438 18.703125 C 16.785156 18.710938 16.800781 18.714844 16.816406 18.722656 C 16.816406 18.804688 16.816406 19.195312 16.816406 19.773438 Z M 15.578125 18.136719 C 15.8125 18.308594 16.257812 18.496094 16.773438 18.703125 C 16.566406 18.621094 16.117188 18.390625 15.578125 18.136719 Z M 30.59375 35.078125 C 29.144531 33.40625 23.773438 26.492188 23.378906 25.992188 C 24.925781 24.523438 26.542969 22.988281 27.664062 21.851562 C 29.179688 20.316406 32.933594 16.339844 35.078125 16.339844 L 35.078125 16.171875 L 28.058594 16.171875 L 28.058594 16.339844 C 30.398438 16.339844 30.230469 19.011719 27.828125 21.453125 C 25.617188 23.6875 21.597656 27.496094 19.6875 29.300781 L 19.6875 20.015625 C 19.707031 18.667969 19.765625 17.6875 20.128906 17.082031 L 20.121094 16.507812 L 15.605469 16.507812 C 14.570312 16.285156 13.617188 16.171875 12.738281 16.171875 C 10.980469 16.171875 9.585938 16.734375 8.550781 17.859375 C 7.519531 18.984375 7.003906 20.359375 7.003906 21.984375 C 7.003906 23.609375 7.652344 24.9375 8.949219 25.960938 L 14.878906 30.703125 C 15.71875 31.371094 16.367188 32.089844 16.820312 32.867188 C 16.910156 33.023438 16.996094 33.179688 17.070312 33.339844 C 17.519531 34.300781 17.746094 35.191406 17.746094 36.011719 C 17.746094 36.167969 17.734375 36.324219 17.714844 36.480469 C 17.59375 37.699219 17.234375 38.722656 16.632812 39.554688 C 16.148438 40.226562 15.511719 40.773438 14.714844 41.191406 C 13.769531 41.703125 12.65625 41.957031 11.371094 41.957031 C 10.085938 41.957031 8.9375 41.613281 7.925781 40.921875 C 6.191406 39.765625 5.324219 38.140625 5.324219 36.046875 C 5.324219 34.289062 5.894531 32.648438 7.039062 31.136719 L 6.742188 30.902344 C 5.863281 31.859375 5.269531 32.8125 4.960938 33.757812 C 4.652344 34.707031 4.5 35.453125 4.5 35.996094 C 4.5 36.542969 4.53125 36.996094 4.597656 37.351562 C 5.015625 39.710938 6.257812 41.378906 8.324219 42.359375 C 9.421875 42.894531 10.671875 43.160156 12.078125 43.160156 C 14.386719 43.160156 16.230469 42.527344 17.613281 41.257812 C 18.195312 40.726562 18.667969 40.160156 19.039062 39.554688 C 19.0625 39.515625 19.082031 39.476562 19.105469 39.4375 C 19.570312 38.644531 19.773438 37.722656 19.722656 36.800781 C 19.703125 36.472656 19.695312 36.105469 19.6875 35.710938 L 19.6875 35.667969 C 19.6875 33.289062 18.699219 31.007812 16.941406 29.425781 C 16.898438 29.390625 16.859375 29.355469 16.820312 29.320312 C 16.683594 29.203125 16.542969 29.082031 16.394531 28.964844 L 10.300781 24.089844 C 9.332031 23.308594 8.851562 22.335938 8.851562 21.167969 C 8.851562 20 9.222656 19.042969 9.96875 18.292969 C 10.714844 17.546875 11.644531 17.175781 12.753906 17.175781 C 13.863281 17.175781 16.566406 18.621094 16.773438 18.703125 C 16.789062 18.710938 16.800781 18.714844 16.816406 18.722656 C 16.816406 18.800781 16.816406 19.191406 16.816406 19.773438 C 16.816406 19.800781 16.816406 19.824219 16.816406 19.835938 C 16.820312 19.894531 16.820312 19.953125 16.820312 20.015625 L 16.820312 28.375 L 16.84375 28.394531 C 16.996094 28.515625 17.144531 28.640625 17.292969 28.769531 C 18.316406 29.664062 19.117188 30.652344 19.6875 31.714844 L 19.6875 29.46875 C 20.117188 29.066406 20.675781 28.566406 21.269531 27.996094 L 33.714844 43.085938 L 40.5 43.085938 L 40.5 42.917969 C 38.292969 42.917969 32.042969 36.816406 30.59375 35.078125 Z M 16.820312 20.015625 C 16.820312 19.953125 16.820312 19.894531 16.816406 19.835938 C 16.816406 19.824219 16.816406 19.800781 16.816406 19.773438 C 16.816406 22.265625 16.820312 28.257812 16.820312 28.375 Z M 16.820312 20.015625 " fill-opacity="1" fill-rule="nonzero"/></g><g clip-path="url(#f299167044)"><path fill="#100f0d" d="M 23.21875 10.527344 L 37.941406 6.101562 L 23.21875 2.191406 L 8.5 7.953125 L 23.21875 10.527344 " fill-opacity="1" fill-rule="nonzero"/></g><g clip-path="url(#02889e5ebf)"><path fill="#100f0d" d="M 29.964844 6.359375 L 29.964844 14.941406 C 28.894531 12.347656 26.273438 11.179688 23.21875 11.179688 C 20.265625 11.179688 17.734375 12.234375 16.605469 14.703125 L 16.605469 6.359375 L 29.964844 6.359375 " fill-opacity="1" fill-rule="nonzero"/></g><path fill="#100f0d" d="M 8.136719 7.9375 C 8.136719 8.273438 8.417969 8.546875 8.761719 8.546875 C 9.105469 8.546875 9.386719 8.273438 9.386719 7.9375 C 9.386719 7.601562 9.105469 7.328125 8.761719 7.328125 C 8.417969 7.328125 8.136719 7.601562 8.136719 7.9375 " fill-opacity="1" fill-rule="nonzero"/><g clip-path="url(#c660b05fcc)"><path fill="#100f0d" d="M 8.753906 8.546875 C 8.753906 8.546875 8.046875 9.085938 8.753906 10.539062 C 9.464844 11.996094 7.246094 14.304688 7.246094 14.304688 L 8.484375 13.601562 C 8.484375 13.601562 8.175781 14.355469 8.070312 14.707031 C 8.070312 14.707031 10.640625 12.847656 9.386719 10.390625 C 8.136719 7.929688 8.753906 8.546875 8.753906 8.546875 " fill-opacity="1" fill-rule="nonzero"/></g></svg>